<svg xmlns="http://www.w3.org/2000/svg" id="Layer_1" data-name="Layer 1" viewBox="0 0 216 76.29"><defs><style>.cls-1{fill:#b0afab;}</style></defs><title>InsuranceLogos</title><path class="cls-1" d="M173,47.36a2.29,2.29,0,1,1,2.3,2.3,2.3,2.3,0,0,1-2.3-2.3m4.22,0a1.93,1.93,0,1,0-1.92,1.93,1.85,1.85,0,0,0,1.92-1.93m-2.45,1.3h-.34V46h1.13c.69,0,.92.25.92.72s-.35.7-.81.73l.78,1.17H176l-.74-1.17h-.56Zm.47-1.47c.36,0,.87.06.87-.43s-.3-.42-.62-.42h-.72v.85Z"></path><path class="cls-1" d="M136.25,33.29a8.62,8.62,0,0,0-5.81-1.95A8,8,0,0,0,124.67,34a10.11,10.11,0,0,0-2.59,6.94,9.4,9.4,0,0,0,2.68,6.76A8.69,8.69,0,0,0,131,50.26a7.49,7.49,0,0,0,7.55-6.49l0-.16h-1.41l0,.12a5.92,5.92,0,0,1-5.83,5.21c-2.68,0-4.22-1.83-4.23-5V39.67h11.76v-.14a8.29,8.29,0,0,0-2.57-6.24m-2.46,5.06H127V36.44a4.08,4.08,0,0,1,1-2.95,3.26,3.26,0,0,1,2.33-.93c2.17,0,3.37,1.39,3.38,3.89Z"></path><path class="cls-1" d="M99.4,46.17H98.08l0,.12a2.42,2.42,0,0,1-2.38,2.23c-1.33,0-2-.93-2-2.75V33.09H98V31.84H93.7V26.35l-.15,0c-1,.11-3.09.27-4.16.27h-.14v5.2H86.37v1.25h2.9v11c0,4.07,1.74,6.13,5.17,6.13a4.62,4.62,0,0,0,4.93-3.92Z"></path><path class="cls-1" d="M83.58,48.52V37.3A5.93,5.93,0,0,0,82,33a6,6,0,0,0-4.33-1.66A6.74,6.74,0,0,0,72,34.19L72,32v-.13H64.87v1.23h2.78V48.53h-5L52.51,19.3l0-.1H51.24l0,.1-10,29.23h-2.8v1.22h8.31V48.53H42.93l2.77-8.35h8.9l2.81,8.35H53.53v1.22H74.76V48.52H72V40c0-5.11,2.74-7,4.57-7s2.67,1.15,2.67,3.41V48.52h-2.6v1.23H86.4V48.52H83.58ZM50,27l4.17,11.9H46.13Z"></path><path class="cls-1" d="M118.66,48.52V37.12c0-2.66-1.62-5.77-6.17-5.77a7.81,7.81,0,0,0-6.14,2.6V19.29H99.26v1.27h2.66v28H99.05v1.23h10V48.52h-2.73V39.84c0-3,1-4.65,1.88-5.51a4.23,4.23,0,0,1,3-1.29c2.43,0,3,2,3,3.67V48.52h-2.73v1.23h10V48.52h-2.82Z"></path><path class="cls-1" d="M171.69,48.52H169V36.43c0-3.13-2.15-5.08-5.6-5.08a7,7,0,0,0-5.87,2.74c-.91-1.78-2.65-2.74-5.09-2.74a7.83,7.83,0,0,0-5.8,2.4l0-1.76v-.13h-7.21v1.23h2.95V48.52h-2.9v1.23h9.8V48.52H146.7V40c.08-2.48.2-4.08,1.08-5.3A4.1,4.1,0,0,1,151,33a2.16,2.16,0,0,1,2,1.24,7.52,7.52,0,0,1,.38,3.11V48.52h-2.62v1.23h9.64V48.52H157.9V40c.08-2.48.2-4.07,1.08-5.3A4.08,4.08,0,0,1,162.16,33a2.16,2.16,0,0,1,2.05,1.24,7.71,7.71,0,0,1,.37,3.11V48.52H162v1.23h9.86V48.52Z"></path><polygon class="cls-1" points="38.45 54.73 38.45 57.09 170.88 57.09 171.67 54.73 38.45 54.73"></polygon></svg>