<svg xmlns="http://www.w3.org/2000/svg" id="Layer_1" data-name="Layer 1" viewBox="0 0 216 76.29"><defs><style>.cls-1{fill:#b0afab;}</style></defs><title>InsuranceLogos</title><path class="cls-1" d="M85.31,49.74a.29.29,0,0,1,.33-.33H86a.3.3,0,0,1,.34.33V52.1a3.07,3.07,0,0,1,0,.43h0a2.17,2.17,0,0,1,1.95-1.19c1.24,0,1.82.67,1.82,2v3c0,.24-.12.33-.34.33h-.33a.29.29,0,0,1-.33-.33V53.56c0-.74-.17-1.31-1-1.31a1.8,1.8,0,0,0-1.74,2v2.15a.29.29,0,0,1-.33.33h-.31c-.24,0-.34-.12-.34-.33V49.74Z"></path><path class="cls-1" d="M95.38,53.53a1.27,1.27,0,0,0-1.27-1.4,1.53,1.53,0,0,0-1.52,1.4Zm-1.24-2.19a2.22,2.22,0,0,1,2.26,2.5.34.34,0,0,1-.35.36H92.54A1.76,1.76,0,0,0,94.35,56a2.26,2.26,0,0,0,1.27-.41.33.33,0,0,1,.47.12l.1.17a.31.31,0,0,1-.1.45,3.08,3.08,0,0,1-1.76.55,2.66,2.66,0,0,1-2.77-2.74,2.51,2.51,0,0,1,2.58-2.77"></path><path class="cls-1" d="M99.41,56a1.57,1.57,0,0,0,1.41-1.67v-.24h-.26c-.74,0-2.13.07-2.13,1a.89.89,0,0,0,1,.86m1.15-2.55h.26v-.15a1,1,0,0,0-1.15-1.14,2.42,2.42,0,0,0-1.19.33.33.33,0,0,1-.48-.12l-.07-.14a.34.34,0,0,1,.12-.48,3.64,3.64,0,0,1,1.69-.45,1.85,1.85,0,0,1,2.06,2v3a.3.3,0,0,1-.34.34h-.26a.3.3,0,0,1-.33-.34v-.31a2.08,2.08,0,0,1,0-.31h0a1.94,1.94,0,0,1-1.72,1.1,1.62,1.62,0,0,1-1.77-1.55c.05-1.65,2.08-1.81,3.18-1.81"></path><path class="cls-1" d="M103.59,49.74a.29.29,0,0,1,.33-.33h.31a.3.3,0,0,1,.33.33v5.42c0,.59.27.67.48.69a.27.27,0,0,1,.26.31v.24a.31.31,0,0,1-.35.36c-.55,0-1.41-.17-1.41-1.48V49.74Z"></path><path class="cls-1" d="M106.76,52.34h-.36a.3.3,0,0,1-.33-.33v-.15a.3.3,0,0,1,.33-.33h.38V50.36c0-.24.12-.33.34-.33h.31a.29.29,0,0,1,.33.33v1.15h.91a.29.29,0,0,1,.33.33V52a.3.3,0,0,1-.33.34h-.93v2.34c0,1,.62,1.14,1,1.19s.36.09.36.33v.22c0,.24-.15.33-.41.33a1.81,1.81,0,0,1-2-1.93V52.34Z"></path><path class="cls-1" d="M110.36,49.74c0-.24.12-.33.34-.33H111a.3.3,0,0,1,.33.33V52.1c0,.24,0,.43,0,.43h0a2.19,2.19,0,0,1,2-1.19c1.24,0,1.81.67,1.81,2v3a.29.29,0,0,1-.33.33h-.34a.29.29,0,0,1-.33-.33V53.56c0-.74-.17-1.31-1-1.31a1.8,1.8,0,0,0-1.75,2v2.15a.29.29,0,0,1-.33.33h-.31a.29.29,0,0,1-.33-.33V49.74Z"></path><path class="cls-1" d="M122.39,56a1.82,1.82,0,0,0,1.81-1.89,1.8,1.8,0,0,0-1.81-1.86,1.88,1.88,0,0,0,0,3.75m0-4.63a2.76,2.76,0,1,1-2.82,2.74,2.74,2.74,0,0,1,2.82-2.74"></path><path class="cls-1" d="M129.19,56c.83,0,1.5-.67,1.5-1.86s-.62-1.89-1.48-1.89-1.5.55-1.5,1.89A1.63,1.63,0,0,0,129.19,56m-2.46-4.15c0-.24.12-.34.33-.34h.24c.24,0,.34.12.34.29v.31a1.32,1.32,0,0,1,0,.29h0a1.9,1.9,0,0,1,1.76-1c1.41,0,2.29,1.12,2.29,2.75a2.44,2.44,0,0,1-2.36,2.74,1.78,1.78,0,0,1-1.62-.93h0a3.2,3.2,0,0,1,0,.45v2.08c0,.24-.12.33-.34.33h-.31a.29.29,0,0,1-.33-.33Z"></path><path class="cls-1" d="M133.36,52.34H133a.3.3,0,0,1-.34-.33v-.15a.3.3,0,0,1,.34-.33h.38V50.36a.29.29,0,0,1,.33-.33H134c.24,0,.34.12.34.33v1.15h.9c.24,0,.34.12.34.33V52a.31.31,0,0,1-.34.34h-.93v2.34c0,1,.62,1.14,1,1.19s.36.09.36.33v.22c0,.24-.14.33-.4.33a1.81,1.81,0,0,1-2-1.93V52.34Z"></path><path class="cls-1" d="M137,51.82c0-.24.12-.34.33-.34h.31c.24,0,.33.12.33.34v4.55c0,.24-.12.34-.33.34h-.31a.3.3,0,0,1-.33-.34Zm0-1.75v-.33a.29.29,0,0,1,.33-.33h.36a.3.3,0,0,1,.33.33v.33a.3.3,0,0,1-.33.34h-.36c-.24,0-.33-.12-.33-.34"></path><path class="cls-1" d="M142.29,56a1.82,1.82,0,0,0,1.81-1.89,1.8,1.8,0,0,0-1.81-1.86,1.88,1.88,0,0,0,0,3.75m0-4.63a2.76,2.76,0,1,1-2.82,2.74,2.74,2.74,0,0,1,2.82-2.74"></path><path class="cls-1" d="M146.61,51.82c0-.24.11-.34.33-.34h.29c.23,0,.33.12.33.34v.47a2.45,2.45,0,0,1,0,.31h0a2.18,2.18,0,0,1,2-1.24c1.24,0,1.79.67,1.79,2v3c0,.24-.12.34-.33.34h-.31a.31.31,0,0,1-.34-.34V53.58c0-.74-.14-1.31-1-1.31a1.8,1.8,0,0,0-1.74,1.93v2.17c0,.24-.12.34-.33.34H147a.31.31,0,0,1-.34-.34V51.82Z"></path><path class="cls-1" d="M152.86,55.8l.09-.14c.15-.17.26-.19.48-.07a2.25,2.25,0,0,0,1.29.43c.52,0,.88-.24.88-.7,0-1-2.7-.69-2.7-2.45,0-1,.86-1.51,1.91-1.51a2.62,2.62,0,0,1,1.46.41c.19.09.21.26.12.45l-.1.17c-.09.19-.26.21-.45.12a2.13,2.13,0,0,0-1.07-.31c-.51,0-.89.21-.89.67,0,1.05,2.7.66,2.7,2.45,0,.89-.76,1.55-1.89,1.55a2.85,2.85,0,0,1-1.76-.57.35.35,0,0,1-.07-.5"></path><path class="cls-1" d="M76.91,39.17A21.67,21.67,0,1,0,40.38,54.92a7.67,7.67,0,0,0,4.82,1.69,7.53,7.53,0,0,0,3.51-.86l14.36-8.59-1-5.48L47,50.7a4,4,0,0,1-5.08-1.2,16.89,16.89,0,1,1,22.33,3.94l.93,5A21.63,21.63,0,0,0,76.91,39.17m-13-6.39h0l-8.76-6.9-8.7,6.9.14-.05-.12.05s1.1.16,3.1.28v2.27a12,12,0,0,0-2,.5l.48.79h1.07l-1.62,8.06L60.9,36.62h1.38l.46-.79.07,0a11.43,11.43,0,0,0-2.1-.5V33.06c2.1-.14,3.22-.28,3.22-.28M53.84,31.56c.45,0,.93,0,1.36,0s.88,0,1.36,0V34.9c-.41,0-.84,0-1.29,0s-1,0-1.43,0Zm-.72,3.36a24.07,24.07,0,0,0-2.69.27V32c.86-.15,1.79-.27,2.69-.36Zm6.83.24c-.74-.09-1.65-.19-2.7-.24V31.61c.91.09,1.84.21,2.7.36Z"></path><path class="cls-1" d="M93.33,27.36A6.92,6.92,0,0,0,87.86,30V20.3a.39.39,0,0,0-.21-.36.38.38,0,0,0-.41,0L85,21.44a.42.42,0,0,0-.19.34V43.44a.42.42,0,0,0,.41.41h2.29a.42.42,0,0,0,.4-.41V41.7a7,7,0,0,0,5.47,2.48c3.74,0,7.73-2.93,7.73-8.44s-4-8.38-7.73-8.38m4.58,8.47c0,3.25-2,5.49-5,5.49a5.3,5.3,0,0,1-5.13-5.58,5.33,5.33,0,0,1,5.13-5.49c2.89,0,5,2.31,5,5.58"></path><path class="cls-1" d="M110.31,27.36c-4.43,0-7.75,3.63-7.75,8.42a8.07,8.07,0,0,0,8.06,8.43,8.37,8.37,0,0,0,6.64-3,.41.41,0,0,0,0-.57l-1.43-1.29a.4.4,0,0,0-.57,0,5.88,5.88,0,0,1-4.53,2,4.89,4.89,0,0,1-4.94-4.29h11.69a.41.41,0,0,0,.4-.38c0-.38,0-.62,0-.84,0-5-3.1-8.54-7.57-8.54m-4.58,7.11c.46-2.58,2.27-4.34,4.51-4.34,2.79,0,4.11,2.17,4.44,4.34Z"></path><path class="cls-1" d="M126.28,27.46a13.18,13.18,0,0,0-5.75,1.33.41.41,0,0,0-.22.5l.69,1.86a.44.44,0,0,0,.58.24,10.2,10.2,0,0,1,4.48-1.05c1.89,0,4.11.65,4.13,3.68a16.24,16.24,0,0,0-4.27-.53c-4.3,0-7,2.08-7,5.49s3.08,5.18,6.13,5.18a7.23,7.23,0,0,0,5.11-2v1.24a.42.42,0,0,0,.41.41h2.26a.42.42,0,0,0,.41-.41V34.06a6.45,6.45,0,0,0-1.72-4.79,7.34,7.34,0,0,0-5.27-1.81m3.91,9.23v1.12c0,2.12-2,3.72-4.7,3.72-1.67,0-3.44-.83-3.44-2.69,0-1.65,1.55-2.68,4.08-2.68a14.12,14.12,0,0,1,4.06.53"></path><path class="cls-1" d="M148.2,39.17a.44.44,0,0,0-.28-.12.41.41,0,0,0-.29.12,5.87,5.87,0,0,1-4.39,2.15A5.35,5.35,0,0,1,138,35.71a5.27,5.27,0,0,1,5.08-5.53,5.82,5.82,0,0,1,4.36,2.19.49.49,0,0,0,.29.12h0a.41.41,0,0,0,.29-.12l1.52-1.6a.42.42,0,0,0,0-.57,8.24,8.24,0,0,0-6.44-2.86,8.42,8.42,0,1,0,6.56,13.74.4.4,0,0,0,0-.57Z"></path><path class="cls-1" d="M158.13,27.36a8.34,8.34,0,0,0-8.42,8.47,8.26,8.26,0,0,0,8.37,8.35,8.41,8.41,0,1,0,0-16.82m5.22,8.49a5.24,5.24,0,0,1-5.22,5.49,5.36,5.36,0,0,1-5.27-5.6,5.27,5.27,0,0,1,5.2-5.54,5.4,5.4,0,0,1,5.29,5.65"></path><path class="cls-1" d="M176.1,27.36a6.14,6.14,0,0,0-4.85,2.15V28.1a.42.42,0,0,0-.4-.41h-2.27a.43.43,0,0,0-.41.41V43.44a.43.43,0,0,0,.41.41h2.29a.42.42,0,0,0,.41-.41V34.66a4.11,4.11,0,0,1,4.2-4.39c2.43,0,3.84,1.53,3.84,4.22v8.95a.42.42,0,0,0,.4.41H182a.42.42,0,0,0,.41-.41V33.92c0-4-2.51-6.56-6.32-6.56"></path></svg>