<svg xmlns="http://www.w3.org/2000/svg" id="Layer_1" data-name="Layer 1" viewBox="0 0 216 76.29"><defs><style>.cls-1{fill:#b0afab;stroke:#b0b0ac;stroke-miterlimit:10;stroke-width:0.4px;}</style></defs><title>InsuranceLogos</title><path class="cls-1" d="M39.28,29.85a13.66,13.66,0,0,1,8.58-2.71,24.13,24.13,0,0,1,5.63.77,2.54,2.54,0,0,0,.89.12c0,.73.19,2.74.45,4.68a.68.68,0,0,1-.86.06c-.48-2.16-1.91-4.64-6.52-4.64-4.86,0-9,3.08-9,9.67s4.23,10.36,9.45,10.36a6.77,6.77,0,0,0,6.64-4.55.69.69,0,0,1,.83.13,11.93,11.93,0,0,1-1.53,4.36,5.9,5.9,0,0,0-1.11.32,18.94,18.94,0,0,1-5,.73A14,14,0,0,1,39.79,47a10.25,10.25,0,0,1-4.52-8.75A10.53,10.53,0,0,1,39.28,29.85Z"></path><path class="cls-1" d="M57.37,40.65a8.55,8.55,0,0,1,8.8-8.73,8.14,8.14,0,0,1,8.59,8.48A8.44,8.44,0,0,1,66.17,49C60.68,49,57.37,45.1,57.37,40.65Zm14.91.52c0-4.08-1.8-8.49-6.53-8.49-2.57,0-5.91,1.76-5.91,7.18,0,3.66,1.78,8.41,6.65,8.41C69.46,48.27,72.28,46,72.28,41.17Z"></path><path class="cls-1" d="M85,42c.57,1.17,1.12,2.3,1.71,3.39h0c.67-1.16,1.28-2.45,1.9-3.71L91,37c1.11-2.25,1.83-3.61,1.88-4.75.84.07,1.36.07,1.85.07s1.44,0,2.2-.07a.53.53,0,0,1,0,.62l-.52,0c-1.56.15-1.76.61-1.73,2.35,0,2.62.07,7.19.27,10.76.07,1.23.05,1.9,1.21,2l.79.07a.45.45,0,0,1,0,.62c-1-.05-2-.07-2.91-.07s-2,0-3,.07a.46.46,0,0,1,0-.62L91.7,48c1.21-.12,1.21-.52,1.21-2.1L92.84,35.6h0c-.17.27-1.11,2.25-1.61,3.22L89,43.15c-1.11,2.17-2.23,4.5-2.67,5.64a.3.3,0,0,1-.25.1.32.32,0,0,1-.22-.1c-.42-1.31-1.61-3.74-2.18-4.95l-2.22-4.77c-.52-1.14-1-2.43-1.59-3.57h0c-.1,1.54-.17,3-.24,4.41s-.18,3.71-.18,5.81c0,1.83.15,2.23,1.11,2.3l1,.07c.17.15.14.55,0,.62-.84-.05-1.81-.07-2.75-.07-.79,0-1.68,0-2.52.07a.49.49,0,0,1,0-.62l.55-.07c1-.15,1.38-.3,1.53-2s.27-3,.42-5.44c.12-2,.22-4.16.27-5.52,0-1.55-.15-1.93-1.65-2.12l-.4,0a.47.47,0,0,1,.1-.62c.74,0,1.33.07,2,.07s1.24,0,2.06-.07a9.51,9.51,0,0,0,1.28,4.08Z"></path><path class="cls-1" d="M104.78,43.87c0,3.34.07,3.75,2.1,4l.86.1a.62.62,0,0,1-.06.79c-1.82-.06-2.87-.09-4.14-.09s-2.48,0-3.88.09a.61.61,0,0,1-.06-.79l.67-.1c1.84-.25,1.91-.63,1.91-4V32.14c0-2.71-.07-3.25-1.5-3.41l-1.14-.12a.53.53,0,0,1,.06-.8,50.87,50.87,0,0,1,6.3-.25,11.47,11.47,0,0,1,6.1,1.27,5.49,5.49,0,0,1,2.55,4.77,5.39,5.39,0,0,1-3.18,5,10.73,10.73,0,0,1-4.39,1c-.22-.1-.22-.58,0-.64,3.43-.63,4.67-2.57,4.67-5.34,0-3.08-1.81-5.09-5.12-5.09-1.69,0-1.72.13-1.72,1.15Z"></path><path class="cls-1" d="M120.12,49a7.76,7.76,0,0,1-3.86-.91,11.37,11.37,0,0,1-.67-3.46c.13-.18.5-.23.6-.08.37,1.26,1.38,3.69,4.25,3.69a2.81,2.81,0,0,0,3.09-2.85,3.7,3.7,0,0,0-2-3.46l-2.35-1.53a5.3,5.3,0,0,1-2.67-4.26c0-2.35,1.83-4.25,5-4.25a9.67,9.67,0,0,1,2.3.32,3.3,3.3,0,0,0,.87.15,10.93,10.93,0,0,1,.44,3c-.1.14-.49.22-.62.07a3.24,3.24,0,0,0-3.36-2.8c-2.43,0-2.94,1.61-2.94,2.75a3.88,3.88,0,0,0,2.1,3l2,1.24c1.55,1,3.09,2.4,3.09,4.75C125.39,47.18,123.34,49,120.12,49Z"></path><path class="cls-1" d="M135.16,44.88c0,2.65.15,3,1.48,3.14l.94.07a.48.48,0,0,1-.05.62c-1.53-.05-2.37-.07-3.36-.07s-1.93,0-3.24.07a.48.48,0,0,1-.05-.62l.77-.07c1.43-.15,1.48-.49,1.48-3.14V43.62a5,5,0,0,0-.79-3.07l-2.92-5.69c-.84-1.63-1.21-1.76-1.95-1.88l-.7-.12a.47.47,0,0,1,0-.62c.8,0,1.69.07,2.87.07s2,0,2.65-.07c.22.07.22.47.07.62l-.32,0c-.86.12-1,.24-1,.44a12.72,12.72,0,0,0,.77,1.91c.92,1.83,1.83,3.78,2.79,5.49.77-1.31,1.59-2.75,2.33-4.18a22.94,22.94,0,0,0,1.61-3.27c0-.15-.45-.32-1-.39l-.45,0a.41.41,0,0,1,.05-.62c.89,0,1.61.07,2.38.07s1.46,0,2.3-.07a.42.42,0,0,1,.05.62l-.7.12c-1.28.22-2,1.78-3.26,3.91l-1.56,2.7c-1.09,1.88-1.16,2.1-1.16,4Z"></path><path class="cls-1" d="M144.11,34a10.67,10.67,0,0,1,6.68-2.1,19.14,19.14,0,0,1,4.38.59,1.85,1.85,0,0,0,.69.1c0,.57.15,2.13.35,3.64a.54.54,0,0,1-.67,0c-.37-1.69-1.48-3.62-5.07-3.62-3.79,0-7,2.4-7,7.52s3.29,8.07,7.35,8.07A5.28,5.28,0,0,0,156,44.73a.53.53,0,0,1,.64.1,9.5,9.5,0,0,1-1.19,3.39,5.71,5.71,0,0,0-.86.24,14.56,14.56,0,0,1-3.91.57,10.83,10.83,0,0,1-6.16-1.65A8,8,0,0,1,141,40.57,8.21,8.21,0,0,1,144.11,34Z"></path><path class="cls-1" d="M163.73,40.65c-1.19,0-1.24.05-1.24.79v3.49c0,2.6.12,2.94,1.51,3.09l.72.07c.15.1.1.55-.05.62-1.34-.05-2.18-.07-3.14-.07s-1.91,0-2.87.07a.48.48,0,0,1,0-.62L159,48c1.38-.25,1.43-.49,1.43-3.09V36c0-2.59-.17-3-1.46-3.11l-.64,0c-.15-.1-.1-.55,0-.62,1.21,0,2.05.07,3.12.07s1.8,0,2.87-.07c.14.07.19.52,0,.62l-.47,0c-1.44.15-1.49.52-1.49,3.11v2.85c0,.76,0,.79,1.24.79h7.07c1.19,0,1.24,0,1.24-.79V36c0-2.59,0-3-1.51-3.11l-.47,0c-.15-.1-.1-.55.05-.62,1.14,0,2,.07,3,.07s1.81,0,2.92-.07c.15.07.2.52,0,.62l-.52,0c-1.43.15-1.48.52-1.48,3.11v8.91c0,2.6.05,2.92,1.48,3.09l.6.07c.14.1.09.55-.05.62-1.19-.05-2-.07-3-.07s-1.9,0-3,.07a.48.48,0,0,1-.05-.62l.47-.07c1.51-.25,1.51-.49,1.51-3.09V41.44c0-.74,0-.79-1.24-.79Z"></path><path class="cls-1" d="M177,34.19a2,2,0,0,1,.16-.8,1.57,1.57,0,0,1,.41-.59,1.68,1.68,0,0,1,.6-.37,2.13,2.13,0,0,1,.72-.12,2.25,2.25,0,0,1,.74.12,1.69,1.69,0,0,1,1,1,2,2,0,0,1,.15.8,2.09,2.09,0,0,1-.15.81,1.94,1.94,0,0,1-.41.59,1.85,1.85,0,0,1-.6.36,2.19,2.19,0,0,1-.73.12,2.25,2.25,0,0,1-.74-.12,1.62,1.62,0,0,1-.59-.36,1.78,1.78,0,0,1-.41-.59A2.09,2.09,0,0,1,177,34.19Zm.34,0a1.76,1.76,0,0,0,.12.66,1.43,1.43,0,0,0,.34.5,1.34,1.34,0,0,0,.49.32,1.73,1.73,0,0,0,.6.11,1.8,1.8,0,0,0,.62-.11,1.34,1.34,0,0,0,.49-.32,1.41,1.41,0,0,0,.33-.49,1.78,1.78,0,0,0,.12-.67,1.69,1.69,0,0,0-.13-.66,1.45,1.45,0,0,0-.33-.5,1.53,1.53,0,0,0-.5-.32,1.73,1.73,0,0,0-.6-.11,1.75,1.75,0,0,0-.62.11,1.49,1.49,0,0,0-.49.32,1.45,1.45,0,0,0-.33.5A1.9,1.9,0,0,0,177.29,34.19Zm1.31.77.15,0,.11,0v.17H178V35a1.05,1.05,0,0,1,.24-.06V33.31l-.13,0a.39.39,0,0,1-.11-.06v-.15h.26l.31,0h.29l.3,0a.85.85,0,0,1,.26.11.58.58,0,0,1,.17.18.5.5,0,0,1,.07.27.41.41,0,0,1-.16.35,1,1,0,0,1-.35.19l.25.4a1.58,1.58,0,0,0,.32.38l.16.08v.15h-.35l-.2-.08a1.86,1.86,0,0,1-.28-.43c-.07-.16-.13-.3-.18-.44h-.26Zm.21-1.68h-.12l-.09,0V34h.23c.28,0,.42-.13.41-.4a.35.35,0,0,0-.13-.27A.45.45,0,0,0,178.81,33.28Z"></path></svg>