<svg xmlns="http://www.w3.org/2000/svg" id="Layer_1" data-name="Layer 1" viewBox="0 0 216 76.29"><defs><style>.cls-1{fill:#b0afab;}.cls-2{fill:#b7b6b2;}</style></defs><title>InsuranceLogos</title><path class="cls-1" d="M124.46,41s-.78-.58-.78-2.63V19.93H127V35.52c0,1.85-.25,4.25,1.13,5.52Z"></path><path class="cls-1" d="M118.54,41s-.79-.61-.79-2.63V19.93h3.34V35.52c0,1.85-.26,4.25,1.13,5.52Z"></path><path class="cls-1" d="M81.82,34.28a4.47,4.47,0,0,0-1.21.16,3.11,3.11,0,0,0-1,.49,2.35,2.35,0,0,0-.69.84A2.54,2.54,0,0,0,78.66,37a1.8,1.8,0,0,0,.2.88,1.61,1.61,0,0,0,.53.57,2.27,2.27,0,0,0,.75.32,4.21,4.21,0,0,0,.87.09,5.05,5.05,0,0,0,1.54-.24,3.64,3.64,0,0,0,1.35-.74l0-3.43a9.32,9.32,0,0,0-1.05-.1l-1.07,0m2.5,6.22a4.44,4.44,0,0,1-.83.45,7.28,7.28,0,0,1-1.91.47c-.33,0-.65,0-.95,0a7.57,7.57,0,0,1-2-.26A5,5,0,0,1,77,40.44a4.13,4.13,0,0,1-1.18-1.35,3.92,3.92,0,0,1-.45-1.93,5.26,5.26,0,0,1,.52-2.37,5.36,5.36,0,0,1,1.4-1.74,6.06,6.06,0,0,1,2-1.08,7.55,7.55,0,0,1,2.36-.36c.37,0,.75,0,1.14,0s.78.06,1.15.11v-.55a3.94,3.94,0,0,0-.14-1.13,1.5,1.5,0,0,0-.44-.71,1.82,1.82,0,0,0-.77-.36,5.49,5.49,0,0,0-1.14-.1,14.23,14.23,0,0,0-2.26.15,6,6,0,0,0-2.37,1V27.46a6.76,6.76,0,0,1,2.59-1.05A11.85,11.85,0,0,1,82,26.22a6.91,6.91,0,0,1,2,.29,4.77,4.77,0,0,1,1.64.86,4.18,4.18,0,0,1,1.12,1.42,4.66,4.66,0,0,1,.41,2c0,1.13,0,2.25,0,3.38s0,2.25,0,3.37a7.26,7.26,0,0,0,.2,1.8A3.35,3.35,0,0,0,88.1,41H84.73Z"></path><path class="cls-1" d="M135.28,34.28a4.47,4.47,0,0,0-1.21.16,3.11,3.11,0,0,0-1,.49,2.35,2.35,0,0,0-.69.84,2.54,2.54,0,0,0-.26,1.18,1.8,1.8,0,0,0,.2.88,1.61,1.61,0,0,0,.53.57,2.18,2.18,0,0,0,.75.32,4.14,4.14,0,0,0,.87.09,5.05,5.05,0,0,0,1.54-.24,3.64,3.64,0,0,0,1.35-.74l0-3.43c-.35,0-.69-.08-1.06-.1l-1.06,0m2.49,6.22a3.89,3.89,0,0,1-.83.45,7.21,7.21,0,0,1-.93.3,7.87,7.87,0,0,1-1,.17c-.33,0-.64,0-.95,0a7.57,7.57,0,0,1-2-.26,4.94,4.94,0,0,1-1.68-.77,4.1,4.1,0,0,1-1.18-1.34,3.94,3.94,0,0,1-.45-1.93,5.13,5.13,0,0,1,.52-2.37,5.39,5.39,0,0,1,1.39-1.75,6.19,6.19,0,0,1,2-1.07,7.56,7.56,0,0,1,2.36-.37c.37,0,.75,0,1.14,0s.77.06,1.15.11v-.55a3.94,3.94,0,0,0-.14-1.13,1.5,1.5,0,0,0-.44-.71A1.86,1.86,0,0,0,136,29a6.12,6.12,0,0,0-1.14-.1,14.3,14.3,0,0,0-2.26.15,6,6,0,0,0-2.36,1V27.46a6.63,6.63,0,0,1,2.59-1.05,12.35,12.35,0,0,1,2.57-.18,6.63,6.63,0,0,1,2,.28,4.82,4.82,0,0,1,1.63.86,4.06,4.06,0,0,1,1.12,1.42,4.66,4.66,0,0,1,.41,2c0,1.13,0,2.25,0,3.38s0,2.25,0,3.37a7.76,7.76,0,0,0,.2,1.8,14.8,14.8,0,0,0,.52,1.72h-3Z"></path><path class="cls-1" d="M69.51,19.92a36.27,36.27,0,0,0-6.17,13.44A34.11,34.11,0,0,0,57.4,19.92H53.2V41h3.48V24.8a44.18,44.18,0,0,1,4.82,13h3.67a47.54,47.54,0,0,1,5-13V41h3.52V19.92Z"></path><path class="cls-1" d="M95.42,28.86a2.7,2.7,0,0,1,2.89,2.85,2.77,2.77,0,0,1-.82,2.11,3,3,0,0,1-2.07.66,2.68,2.68,0,0,1-3-2.77,2.78,2.78,0,0,1,3-2.85m6.15,11.68a9,9,0,0,0-2.7-1.24h0c-1.4-.44-4.57-1.19-5.21-1.34.27-.33.56-.65.86-1h0a8.42,8.42,0,0,0,1.12.07c3.47,0,5.89-2.15,5.89-5.23a4.69,4.69,0,0,0-.66-2.5l1.78-.3V26c-2.14.69-4.11.46-6.81.26-1.24-.1-4.55,0-6.07,2.92a5.82,5.82,0,0,0-.64,2.68,4.72,4.72,0,0,0,2.53,4.37h0a27,27,0,0,0-2.57,3.7l6.58,1.72c1.84.54,4.06,1,4.06,2.55,0,1-.93,2.42-3.52,2.42-2.87,0-3.4-1.46-3.4-2.26a1.89,1.89,0,0,1,.63-1.42L90,42a5.48,5.48,0,0,0-.47,2.56,4.36,4.36,0,0,0,1.74,3.37,7.61,7.61,0,0,0,4.8,1.33c4.79,0,7-2.79,7-5.38a4.13,4.13,0,0,0-1.52-3.35"></path><path class="cls-1" d="M151.41,31.93c0-2.71-1-3.29-3-3a6.87,6.87,0,0,0-2.2.77V41H143V29.53a5.62,5.62,0,0,0-.83-3.19h3.27l.39.72a12.91,12.91,0,0,1,4.1-.83c3.28,0,4.75,2,4.75,6V41h-3.23Z"></path><path class="cls-1" d="M109.71,28.93c1.8,0,2.78,1.17,2.78,3.73v.14h-5.67c0-2.61,1.07-3.87,2.89-3.87m5.94,6.36a12.34,12.34,0,0,0,.14-1.72c0-4.95-2.17-7.34-6.05-7.34s-6.37,2.75-6.37,7.37c0,5,2.63,7.86,7.33,7.86a10.83,10.83,0,0,0,4.46-1.08V37.72a9.5,9.5,0,0,1-3.7.91c-2,0-4.08-.26-4.46-3.34Z"></path><path class="cls-2" d="M106.16,56.32c-.69,0-1-.33-1-1V45.5a.91.91,0,0,1,1-1H107v5h3.76v-4a.9.9,0,0,1,1-1h.9V56.32h-.9a.89.89,0,0,1-1-1v-4H107v5Z"></path><path class="cls-2" d="M117.08,53.63a.7.7,0,0,0,.23.59.59.59,0,0,0,.47.19h3.07a.88.88,0,0,1,1,1v.93h-4.09a2.73,2.73,0,0,1-1.73-.61,2.6,2.6,0,0,1-.88-2.08V47.2a2.57,2.57,0,0,1,2.61-2.7h4.09v.93a.89.89,0,0,1-1,1h-3.07a.65.65,0,0,0-.46.16.68.68,0,0,0-.24.59v2.25h4.79v.93a.89.89,0,0,1-1,1h-3.77Z"></path><path class="cls-2" d="M129.17,45.38l3.14,10.94h-1.19a1.18,1.18,0,0,1-.65-.2.93.93,0,0,1-.37-.52l-.65-2.31h-3.68l-.85,3h-1.08a.66.66,0,0,1-.62-.35.86.86,0,0,1,0-.62l2.88-10c.17-.59.66-.9,1.54-.9a2.21,2.21,0,0,1,1,.19,1.11,1.11,0,0,1,.61.7m-.28,6-1.28-4.52-1.29,4.52Z"></path><path class="cls-2" d="M135.59,53.9c0,.34.17.51.53.51h2.39c.69,0,1,.33,1,1v.93H136a2.41,2.41,0,0,1-1.75-.57,2.27,2.27,0,0,1-.6-1.71V45.5a.91.91,0,0,1,1-1h.87Z"></path><path class="cls-2" d="M138.75,45.5a.89.89,0,0,1,1-1h5.68v.93a.91.91,0,0,1-1,1h-1.35v9.87h-.89a.89.89,0,0,1-1-1V46.44h-2.4Z"></path><path class="cls-2" d="M148.08,56.32c-.69,0-1-.33-1-1V45.5a.91.91,0,0,1,1-1H149v5h3.76v-4a.9.9,0,0,1,1-1h.9V56.32h-.9a.89.89,0,0,1-1-1v-4H149v5Z"></path><path class="cls-2" d="M156.6,55.28l.4,0a.9.9,0,0,0,.13.39.7.7,0,0,0,.32.25,1.35,1.35,0,0,0,.93,0,.63.63,0,0,0,.28-.2.47.47,0,0,0,.09-.28.41.41,0,0,0-.09-.26.61.61,0,0,0-.29-.19,4,4,0,0,0-.57-.16,2.72,2.72,0,0,1-.63-.2,1,1,0,0,1-.34-.3.71.71,0,0,1-.11-.4.77.77,0,0,1,.13-.46.94.94,0,0,1,.41-.32,1.62,1.62,0,0,1,.58-.11,1.68,1.68,0,0,1,.63.12.94.94,0,0,1,.42.34.91.91,0,0,1,.16.51l-.41,0a.65.65,0,0,0-.22-.46.8.8,0,0,0-.56-.16.84.84,0,0,0-.56.14.43.43,0,0,0-.18.34.37.37,0,0,0,.13.29,1.75,1.75,0,0,0,.64.23,4.44,4.44,0,0,1,.71.21A.94.94,0,0,1,159,55a.78.78,0,0,1,.14.46.88.88,0,0,1-.15.49,1,1,0,0,1-.42.35,1.49,1.49,0,0,1-.62.12,1.81,1.81,0,0,1-.73-.12,1.06,1.06,0,0,1-.47-.39,1,1,0,0,1-.18-.58"></path><path class="cls-2" d="M159.73,56.32V53.1h.64l.76,2.27q.1.32.15.48c0-.12.1-.29.17-.52l.77-2.24h.58v3.22h-.42V53.62l-.93,2.69h-.39l-.93-2.74v2.74Z"></path></svg>