<svg xmlns="http://www.w3.org/2000/svg" id="Layer_1" data-name="Layer 1" viewBox="0 0 216 76.29"><defs><style>.cls-1{fill:#dfdfdd;}.cls-2{fill:#d7d7d5;}.cls-3{fill:#c7c7c5;}.cls-4{fill:#b8b9b5;}.cls-5{fill:#b0afab;}</style></defs><title>InsuranceLogos</title><path class="cls-1" d="M43.64,57.25a2.83,2.83,0,1,1,.35,4,2.82,2.82,0,0,1-.35-4"></path><path class="cls-1" d="M54.28,43.65A2.51,2.51,0,0,1,57.74,43l1.6,1.34a2.51,2.51,0,0,1,0,3.52L52.2,56.36a2.5,2.5,0,0,1-3.45.63l-1.61-1.35a2.51,2.51,0,0,1,0-3.51Z"></path><path class="cls-2" d="M39.21,51.24a3,3,0,1,0-3.88-1.81,3,3,0,0,0,3.88,1.81"></path><path class="cls-2" d="M56.8,45.51a2.69,2.69,0,0,0,1.91-3.25l-.77-2.11a2.69,2.69,0,0,0-3.55-1.26L43.25,43a2.68,2.68,0,0,0-1.91,3.24l.77,2.11a2.69,2.69,0,0,0,3.55,1.26Z"></path><path class="cls-3" d="M37.3,37.59a3.29,3.29,0,1,0-2-4.22,3.3,3.3,0,0,0,2,4.22"></path><path class="cls-3" d="M56,45.11a2.92,2.92,0,0,0,3.86-1.37l.83-2.29a2.91,2.91,0,0,0-2.07-3.53L46.46,33.5a2.92,2.92,0,0,0-3.86,1.38l-.83,2.29a2.91,2.91,0,0,0,2.07,3.53Z"></path><path class="cls-4" d="M42.9,25.44a3.63,3.63,0,1,0,.89-5.05,3.62,3.62,0,0,0-.89,5.05"></path><path class="cls-4" d="M55,44.06c1.1,1.57,3.06,2.11,4.36,1.2l2.2-1.55c1.31-.91,1.47-2.93.36-4.5L53.76,27.55a3.23,3.23,0,0,0-4.36-1.2L47.2,27.9c-1.3.91-1.46,2.93-.36,4.5Z"></path><polygon class="cls-5" points="85.53 28 88.88 28 88.88 44.29 86.46 44.29 86.46 30.78 86.42 30.78 80.07 44.29 77.93 44.29 71.61 31.05 71.56 31.05 71.56 44.29 69.14 44.29 69.14 28 72.54 28 79 41.51 85.53 28"></polygon><path class="cls-5" d="M104.74,44.29h-2.28v-1.8h0a5.35,5.35,0,0,1-4.67,2.21c-2.88,0-5-1.23-5-4.22V32.33H95V40c0,1.76,1.09,2.76,3.53,2.76,2.08,0,3.93-1.21,3.93-3.56V32.33h2.28Z"></path><rect class="cls-5" x="108.21" y="27.86" width="2.28" height="16.43"></rect><path class="cls-5" d="M115,28.66h2.29v3.67h3.42v1.78h-3.42v7.37c0,1,.68,1.3,1.84,1.3a8.47,8.47,0,0,0,1.58-.16v1.92a14.65,14.65,0,0,1-2.56.16c-2.23,0-3.15-1.09-3.15-2.83V34.11H112.5V32.33H115Z"></path><path class="cls-5" d="M123.09,27.86h2.28v2.51h-2.28Zm0,4.47h2.28v12h-2.28Z"></path><path class="cls-5" d="M128.82,28h8.48c2.29,0,5,.79,5,4.52,0,2.73-1.56,4.6-5.12,4.6h-7.27v7.17h-1.05Zm1.05,8.21h7.25c2,0,4.09-.78,4.09-3.65,0-3.65-2.92-3.65-4.34-3.65h-7Z"></path><rect class="cls-5" x="144.72" y="28" width="1.05" height="16.29"></rect><path class="cls-5" d="M148.94,36.21c.39-2.94,1.9-4,5.43-4s5.37.8,5.37,3.42v6.55c0,.87,0,1.4.77,1.4a3.12,3.12,0,0,0,1-.19v.92a4,4,0,0,1-1.28.18c-1.44,0-1.44-1-1.44-2.56h0c-1.3,2.4-4,2.7-5.57,2.7-1,0-4.79,0-4.79-3.57,0-2.39,2-3.21,4.4-3.35l4.09-.27c1.21-.09,1.78-.23,1.78-1.67s-.89-2.65-4.34-2.65c-3.08,0-4,1-4.36,3.06Zm9.75,1.55h-.05a2.88,2.88,0,0,1-1.87.62l-4,.27c-2,.14-3.35.69-3.35,2.44,0,2.38,2.39,2.65,3.81,2.65,2.33,0,5.41-1.05,5.41-3.83Z"></path><path class="cls-5" d="M163.32,32.61h1.05v2.32h0a5.2,5.2,0,0,1,4.92-2.69c5.37,0,5.37,3.42,5.37,4.84v7.21h-1.05V37.12c0-2.37-.89-4-4.34-4s-4.95,2.15-4.95,4.32v6.82h-1.05Z"></path><path class="cls-5" d="M179.25,41.36A1.66,1.66,0,1,1,177.6,43a1.63,1.63,0,0,1,1.65-1.66Zm0,.26a1.4,1.4,0,0,0,0,2.8,1.4,1.4,0,0,0,0-2.8ZM178.93,44h-.3V42.14a2.65,2.65,0,0,1,.53,0,1,1,0,0,1,.57.14.45.45,0,0,1,.17.38.46.46,0,0,1-.36.45h0c.16,0,.27.18.31.45A1.91,1.91,0,0,0,180,44h-.3a1.29,1.29,0,0,1-.13-.47.34.34,0,0,0-.39-.32h-.21Zm0-1h.21c.24,0,.45-.09.45-.32s-.12-.32-.45-.32h-.21Z"></path><path class="cls-5" d="M55.15,18.43a4,4,0,1,0,4-4,4,4,0,0,0-4,4"></path><path class="cls-5" d="M54.3,43.09c0,2.13,1.44,3.87,3.2,3.87h3c1.77,0,3.2-1.74,3.2-3.87V27.27c0-2.13-1.43-3.87-3.2-3.87h-3c-1.76,0-3.2,1.74-3.2,3.87Z"></path></svg>