<svg xmlns="http://www.w3.org/2000/svg" id="Layer_1" data-name="Layer 1" viewBox="0 0 216 76.29"><defs><style>.cls-1{fill:#aeaeae;}.cls-2{fill:#afafaf;}.cls-3{fill:none;stroke:#aeaeae;stroke-miterlimit:10;stroke-width:0.56px;}</style></defs><title>InsuranceLogos</title><path class="cls-1" d="M129.93,36.59h-3.8V29.85h-5.95v6.7h-4.3s0,0-.08-.07a.42.42,0,0,1-.08-.21c0-5.25,0-10.5,0-15.82h4.38v5.77H126v-5.8h3.89Z"></path><path class="cls-2" d="M142.88,20.64c2.26,1.12,3,6.63.44,8.37,0,.55,1.39,4.95,2.05,7.56h-4.51c-.91-2.89-1.44-5.41-2.32-8.5,1.65-.38,2.63.05,2.79-2.09,0-2.79-3.58-1.79-3.58-1.54V36.55h-4.11s0,0-.08-.07a.42.42,0,0,1-.08-.21q0-7.86,0-15.68C135.08,19.76,140.63,19.53,142.88,20.64Z"></path><path class="cls-2" d="M133.52,54.39h-5c-2-5.22-3.56-10.7-5.57-16.17h4.54l3.4,11,.53-.18,4.27-10.85H140Z"></path><path class="cls-1" d="M159.07,20.45v3.31h-6.74v3H158v3.43l-2.74.05h-3v2.9h6.76v3.41H148.27V20.45Z"></path><path class="cls-1" d="M171.86,30.25H166.1v2.9h6.78v3.4H162.24s0,0-.07-.07a.42.42,0,0,1-.08-.21c0-5.25,0-10.5,0-15.82h10.74v3.33h-6.69v3h5.73Z"></path><path class="cls-1" d="M141,38.17h10.69v3.36h-6.77v2.91h5.71a22.42,22.42,0,0,1,.18,3.48h-5.84v3h6.69v3.44H141Z"></path><path class="cls-1" d="M105.85,23.82h-4.36v-3.3l.09-.08a.47.47,0,0,1,.22-.07h12.35v3.37h-4.27V36.52c-1.33.28-2.6,0-4,.18Z"></path><path class="cls-1" d="M122,54.35h-4.27V38.17H122Z"></path><path class="cls-2" d="M112.52,39c2.26,1.12,3,6.63.44,8.37,0,.55,1.39,4.95,2.05,7.55h-4.5c-.92-2.89-1.45-5.4-2.33-8.49,1.65-.39,2.63.05,2.79-2.1,0-2.79-3.58-1.79-3.58-1.53V54.88h-4.11s0,0-.08-.07a.42.42,0,0,1-.08-.21c0-5.24,0-10.48,0-15.69C104.72,38.09,110.27,37.85,112.52,39Z"></path><path class="cls-2" d="M164.6,39c2.25,1.12,3,6.63.43,8.37,0,.55,1.4,4.95,2.05,7.55h-4.5c-.92-2.89-1.44-5.4-2.32-8.49,1.64-.39,2.63.05,2.79-2.1,0-2.79-3.59-1.79-3.59-1.53,0,4,0,8,0,12.11h-4.11s0,0-.08-.07a.43.43,0,0,1-.09-.21V38.91C156.79,38.09,162.34,37.85,164.6,39Z"></path><path class="cls-1" d="M169.54,51.11a8,8,0,0,0,3.21.67c1,0,1.86-.38,1.79-1.25s-.46-1.36-1.57-2.69c-2-2.5-3.23-3.89-3.23-5.17,0-2.86,1.57-4.77,5.63-4.77a7.93,7.93,0,0,1,3.24.88l-.1,3.42a4.77,4.77,0,0,0-2.4-1.05c-1.35,0-2,.59-2,1.39,0,1.32,1.61,2.72,2.35,3.55,2,2.25,2.46,3.64,2.46,5.42,0,3.26-2.47,3.75-6.17,3.75a6.59,6.59,0,0,1-3.18-.76Z"></path><rect class="cls-3" x="37.11" y="18.64" width="57.96" height="39.01" rx="1.8"></rect><rect class="cls-3" x="37.11" y="18.64" width="57.96" height="39.01" rx="1.8"></rect><path class="cls-1" d="M39,22.78a.57.57,0,0,0,0-.13A.57.57,0,0,1,39,22.78Z"></path><path class="cls-1" d="M40.94,22.27a.76.76,0,0,0-.75.75V33c11-6.24,31.64-10.06,36.13-10.68Z"></path><path class="cls-1" d="M91.24,22.27H77.13a5.78,5.78,0,0,1-.78.75c-.69.25-1.39.47-2.09.72-9.66,3.51-18.67,8-25.32,16.23a51,51,0,0,0-7.68,12.79,6.43,6.43,0,0,0-.4,1.24l.08,0H58.76a12.91,12.91,0,0,0,.36-4,21.81,21.81,0,0,1,3.59-12.3C66.66,32,72.61,28.47,78,24.4a.84.84,0,0,1,1.13,0c0,.15.13.36.07.44-.47.57-1,1.12-1.45,1.66-6.91,7.55-9.91,16-6.35,26.13A6.8,6.8,0,0,0,72.09,54h16c-9.69-8.74-10.29-23.19-6-28.67-1.39,8.74,2.28,11.87,8.53,14.24a4,4,0,0,0,1.44.32V23A.76.76,0,0,0,91.24,22.27Z"></path><path class="cls-1" d="M39,22.65l0-.11Z"></path><path class="cls-1" d="M39,23v.05a2.64,2.64,0,0,1,0-.29A1.94,1.94,0,0,0,39,23Z"></path></svg>