<svg xmlns="http://www.w3.org/2000/svg" id="Layer_1" data-name="Layer 1" viewBox="0 0 216 76.29"><defs><style>.cls-1{fill:#b0afab;stroke:#b0b0ac;stroke-miterlimit:10;stroke-width:0.4px;}</style></defs><title>InsuranceLogos</title><path class="cls-1" d="M81.09,58.78c-8.74-11.52-19-20.79-32.3-26.55,2.39.58,4.82,1.06,7.18,1.77,8.68,2.62,16.4,6.81,22.31,13.9l.21.25C81.84,52.26,82.05,53.11,81.09,58.78Z"></path><path class="cls-1" d="M94.47,17.51a65.27,65.27,0,0,0-12.35,32c-1.37-1.66-2.6-3.08-3.73-4.58a1.93,1.93,0,0,1,0-1.37c2-9.63,7.2-17.47,14-24.35.54-.54,1.11-1.06,1.67-1.58C94.1,17.53,94.23,17.55,94.47,17.51Z"></path><path class="cls-1" d="M78,31.76a4.71,4.71,0,0,1-4.65,4.76,4.69,4.69,0,0,1,0-9.38A4.69,4.69,0,0,1,78,31.76Z"></path><path class="cls-1" d="M111,33.89c1-2.25,3.24-8.13,3.61-9.34a2.58,2.58,0,0,0,.15-.64.42.42,0,0,0-.22-.39,2,2,0,0,0-.64-.07c-.1,0-.18,0-.18-.1s.1-.13.37-.13c.67,0,1.44.05,1.65.05s.82-.05,1.31-.05c.18,0,.29,0,.29.12s-.07.11-.21.11a1.47,1.47,0,0,0-.8.21c-.22.15-.48.43-.93,1.58-.19.47-1,2.49-1.89,4.56-1,2.46-1.78,4.28-2.17,5.1-.47,1-.54,1.28-.71,1.28s-.28-.23-.6-1L105.9,24.82c-.37-.94-.62-1.13-1.21-1.3a2.52,2.52,0,0,0-.64-.07c-.1,0-.13-.05-.13-.11s.17-.12.43-.12c.81,0,1.77.05,2,.05s.93-.05,1.57-.05c.3,0,.45,0,.45.12s0,.11-.16.11a1.87,1.87,0,0,0-.64.09.33.33,0,0,0-.22.34,6.53,6.53,0,0,0,.45,1.39Z"></path><path class="cls-1" d="M120.33,25.41c.19-.47.26-.56.36-.56s.2.2.35.52c.27.61,2.64,6.52,3.55,8.69.54,1.28,1,1.47,1.27,1.57a1.92,1.92,0,0,0,.59.08c.08,0,.18,0,.18.12s-.17.12-.34.12-1.31,0-2.34,0c-.28,0-.52,0-.52-.1s0-.06.1-.1a.27.27,0,0,0,.14-.39L122.34,32c0-.07,0-.08-.14-.08h-3.41a.16.16,0,0,0-.16.12l-.84,2.29a3,3,0,0,0-.22,1c0,.29.26.39.51.39h.13c.12,0,.15,0,.15.12s-.08.12-.21.12c-.36,0-1.17-.05-1.34-.05s-.89.05-1.49.05c-.19,0-.29,0-.29-.12a.13.13,0,0,1,.14-.12,3.34,3.34,0,0,0,.43,0c.68-.09,1-.59,1.25-1.31Zm1.65,6c.07,0,.07,0,0-.1l-1.46-3.93c-.08-.22-.17-.22-.25,0l-1.38,3.93c0,.06,0,.1,0,.1Z"></path><path class="cls-1" d="M129.93,31.82c0,2.11,0,3,.31,3.22s.8.34,2,.34c.77,0,1.43,0,1.78-.44a1.69,1.69,0,0,0,.35-.81c0-.1.07-.19.16-.19s.1.07.1.22a8.82,8.82,0,0,1-.22,1.43c-.1.34-.15.39-.95.39-1.06,0-1.88,0-2.57,0l-1.62,0h-.6c-.31,0-.63,0-.86,0s-.24,0-.24-.12a.12.12,0,0,1,.12-.12,1.76,1.76,0,0,0,.45-.07c.29-.06.32-.33.39-.75a27.39,27.39,0,0,0,.09-3.1V29.26c0-2.22,0-2.62,0-3.08s-.12-.72-.6-.79a4.12,4.12,0,0,0-.51,0,.15.15,0,0,1-.12-.12c0-.09.07-.12.24-.12.67,0,1.6,0,1.68,0l1.64,0c.15,0,.23,0,.23.12s-.07.1-.12.1l-.49,0c-.43.09-.52.31-.55.81s0,.86,0,3.08Z"></path><path class="cls-1" d="M136.75,29.26c0-2.22,0-2.62,0-3.08s-.12-.72-.61-.79a4.07,4.07,0,0,0-.5,0,.15.15,0,0,1-.12-.12c0-.09.07-.12.24-.12.67,0,1.56,0,1.7,0l1.49,0c.17,0,.26,0,.26.12a.15.15,0,0,1-.14.12,2,2,0,0,0-.37,0c-.39.07-.47.32-.5.79s0,.86,0,3.08v2c0,2.07.46,2.93,1.1,3.5a2.85,2.85,0,0,0,2.2.77,3,3,0,0,0,2.29-1,5.27,5.27,0,0,0,.85-3.47v-1.8c0-2.22,0-2.62,0-3.08s-.1-.72-.59-.79a4.07,4.07,0,0,0-.5,0,.13.13,0,0,1-.12-.12c0-.09.07-.12.23-.12.66,0,1.52,0,1.6,0s.81,0,1.25,0c.17,0,.24,0,.24.12a.13.13,0,0,1-.12.12,1.91,1.91,0,0,0-.37,0c-.41.09-.49.32-.52.79s0,.86,0,3.08V30.8c0,1.54-.2,3.28-1.38,4.29a4.46,4.46,0,0,1-3.1,1,4.59,4.59,0,0,1-3.08-1c-.73-.67-1.3-1.66-1.3-3.75Z"></path><path class="cls-1" d="M149.84,29.26c0-2.22,0-2.62,0-3.08s-.12-.72-.6-.79a4.12,4.12,0,0,0-.51,0,.15.15,0,0,1-.12-.12c0-.09.07-.12.24-.12.67,0,1.63,0,1.72,0s3.2,0,3.53,0a5.07,5.07,0,0,0,.68-.08.68.68,0,0,1,.2-.07c.05,0,.07.07.07.14a5.89,5.89,0,0,0-.12.67c0,.14,0,.78-.09.94s-.06.16-.13.16-.12-.07-.12-.19a1.71,1.71,0,0,0-.08-.5c-.1-.24-.26-.34-1.06-.44-.26,0-2-.05-2.14-.05s-.09.05-.09.15v3.89c0,.1,0,.15.09.15s2.14,0,2.47,0,.58-.05.73-.21.16-.18.22-.18.08,0,.08.12-.08.32-.12.79c0,.28-.07.82-.07.92s0,.27-.13.27-.1-.05-.1-.13a1.19,1.19,0,0,0-.07-.47c-.05-.2-.18-.37-.76-.44-.4,0-2-.07-2.24-.07a.09.09,0,0,0-.1.1v1.2c0,.49,0,2.15,0,2.44,0,1,.31,1.15,1.77,1.15a4.64,4.64,0,0,0,1.48-.16,1.08,1.08,0,0,0,.68-1c0-.17.06-.22.15-.22s.1.12.1.22a12.68,12.68,0,0,1-.2,1.38c-.1.37-.26.37-.83.37-1.11,0-2,0-2.57,0s-1,0-1.23,0h-.64c-.29,0-.63,0-.86,0s-.24,0-.24-.12a.12.12,0,0,1,.12-.12,3.25,3.25,0,0,0,.45-.07c.29,0,.32-.33.39-.75a27.39,27.39,0,0,0,.09-3.1Z"></path><path class="cls-1" d="M98.19,38.89c3.79,0,6.61,2.4,6.61,6.32a6.6,6.6,0,0,1-6.71,6.88c-4.62,0-6.54-3.58-6.54-6.61A6.53,6.53,0,0,1,98.19,38.89Zm.35,12.56c1.52,0,4.65-.87,4.65-5.77,0-4-2.46-6.21-5.12-6.21S93.15,41.32,93.15,45C93.15,48.93,95.51,51.45,98.54,51.45Z"></path><path class="cls-1" d="M108.6,45.17c0-2.22,0-2.62,0-3.08s-.11-.72-.6-.79l-.51,0a.14.14,0,0,1-.11-.12c0-.08.06-.12.23-.12.67,0,1.6,0,1.72,0,.32,0,1.43,0,2.1,0a3.83,3.83,0,0,1,2.83.81,2.39,2.39,0,0,1,.74,1.72c0,2-1.55,3.42-3.82,3.42a3,3,0,0,1-.42,0,.16.16,0,0,1-.15-.14c0-.11.08-.15.39-.15a2.48,2.48,0,0,0,2.74-2.3,2.92,2.92,0,0,0-.84-2.18,2.55,2.55,0,0,0-2-.69,5.4,5.4,0,0,0-.82.1c-.08,0-.12.12-.12.27V47.7c0,1.38,0,2.51.07,3.1,0,.42.13.69.59.76a6,6,0,0,0,.66.06.11.11,0,0,1,.11.12c0,.07-.06.12-.23.12-.81,0-1.79,0-1.85,0s-1,0-1.47,0c-.15,0-.24,0-.24-.12a.12.12,0,0,1,.12-.12,2.42,2.42,0,0,0,.46-.06c.28-.07.32-.34.38-.76a27.39,27.39,0,0,0,.09-3.1Z"></path><path class="cls-1" d="M121.7,47.7c0,1.38,0,2.51.07,3.1,0,.42.11.69.57.76a6.34,6.34,0,0,0,.67.06.11.11,0,0,1,.12.12c0,.07-.07.12-.24.12-.8,0-1.75,0-1.83,0s-1.1,0-1.53,0c-.17,0-.24,0-.24-.12s0-.1.12-.1a1.75,1.75,0,0,0,.44-.07c.3-.06.38-.35.43-.77.07-.59.07-1.72.07-3.1v-6l-2.14,0c-.92,0-1.28.12-1.49.46a2.27,2.27,0,0,0-.24.45c0,.12-.08.14-.15.14a.11.11,0,0,1-.1-.12c0-.15.28-1.43.32-1.55s.1-.27.15-.27a4.85,4.85,0,0,0,.65.17c.43,0,1,.07,1.17.07h5.59a7.87,7.87,0,0,0,1.06-.07c.22,0,.35-.07.42-.07s.07.09.07.17c0,.44,0,1.46,0,1.63s-.07.19-.14.19-.1-.05-.12-.25v-.16c0-.43-.37-.75-1.79-.79l-1.85,0Z"></path><path class="cls-1" d="M130.08,47.7c0,1.38,0,2.51.07,3.1,0,.42.1.69.54.76.22,0,.54.06.67.06a.11.11,0,0,1,.12.12c0,.07-.06.12-.23.12-.83,0-1.79,0-1.86,0s-1,0-1.46,0c-.15,0-.24,0-.24-.12a.12.12,0,0,1,.12-.12,2.42,2.42,0,0,0,.46-.06c.28-.07.33-.34.38-.76.07-.59.09-1.72.09-3.1V45.17c0-2.22,0-2.62,0-3.08s-.15-.7-.47-.77a3.05,3.05,0,0,0-.45,0,.13.13,0,0,1-.12-.12c0-.08.07-.12.24-.12.48,0,1.41,0,1.49,0s1,0,1.49,0c.16,0,.23,0,.23.12a.15.15,0,0,1-.12.12,1.86,1.86,0,0,0-.37,0c-.4.09-.48.29-.52.79s0,.86,0,3.08Z"></path><path class="cls-1" d="M139.24,40.83c3.34,0,5.86,2,5.86,5.37A5.73,5.73,0,0,1,139.16,52a5.48,5.48,0,0,1-5.79-5.62A5.66,5.66,0,0,1,139.24,40.83Zm.34,10.62c1.33,0,4-.7,4-4.84,0-3.44-2.09-5.24-4.43-5.24S134.9,42.92,134.9,46C134.9,49.37,136.9,51.45,139.58,51.45Z"></path><path class="cls-1" d="M148.83,49.91c0,1.17.17,1.53.57,1.63a3.32,3.32,0,0,0,.74.08.12.12,0,0,1,.12.12c0,.09-.1.12-.27.12-.84,0-1.43,0-1.57,0s-.75,0-1.43,0c-.15,0-.23,0-.23-.12a.11.11,0,0,1,.11-.12,2.21,2.21,0,0,0,.61-.08c.37-.1.42-.49.42-1.79v-8.2c0-.57.09-.72.2-.72s.42.29.58.44,2.39,2.52,4.68,4.88c1.46,1.52,3,3.22,3.5,3.69l-.15-7.17c0-.93-.1-1.25-.56-1.33a4.83,4.83,0,0,0-.72-.07.12.12,0,0,1-.12-.14c0-.08.12-.1.29-.1.67,0,1.38,0,1.54,0s.66,0,1.27,0c.15,0,.27,0,.27.1a.17.17,0,0,1-.17.14,1.79,1.79,0,0,0-.35,0c-.49.1-.53.39-.53,1.25l0,8.38c0,1,0,1-.12,1s-.3-.12-1.13-.88c-.15-.13-2.29-2.24-3.85-3.87-1.72-1.8-3.39-3.55-3.84-4.06Z"></path><path class="cls-1" d="M161.32,51.66c-.21-.1-.22-.15-.22-.54,0-.71.06-1.28.08-1.52s0-.23.12-.23.13.05.13.17a1.91,1.91,0,0,0,2.39,1.93c1.47,0,2.23-.82,2.23-1.9s-.56-1.52-1.87-2.49l-.68-.51c-1.6-1.19-2.12-2.07-2.12-3.06,0-1.69,1.33-2.7,3.29-2.7a7.46,7.46,0,0,1,1.53.17,1.81,1.81,0,0,0,.52.07c.12,0,.15,0,.15.1a14.75,14.75,0,0,0-.07,1.52c0,.21,0,.32-.11.32s-.12-.07-.14-.19a2.25,2.25,0,0,0-.22-.71c-.1-.16-.59-.7-1.92-.7-1.07,0-2,.54-2,1.55s.46,1.43,1.92,2.42l.42.29c1.81,1.23,2.43,2.22,2.43,3.45a2.79,2.79,0,0,1-1.38,2.44,4.6,4.6,0,0,1-2.36.5A5.51,5.51,0,0,1,161.32,51.66Z"></path></svg>